<svg xmlns="http://www.w3.org/2000/svg" xmlns:xlink="http://www.w3.org/1999/xlink" width="200" zoomAndPan="magnify" viewBox="0 0 150 37.5" height="50" preserveAspectRatio="xMidYMid meet" version="1.0"><defs><g/><clipPath id="62e5615796"><path d="M 0.988281 13.582031 L 10.671875 13.582031 L 10.671875 23.265625 L 0.988281 23.265625 Z M 0.988281 13.582031 " clip-rule="nonzero"/></clipPath><clipPath id="619cd9b52f"><path d="M 10.671875 18.421875 C 10.671875 21.097656 8.503906 23.265625 5.828125 23.265625 C 3.15625 23.265625 0.988281 21.097656 0.988281 18.421875 C 0.988281 15.75 3.15625 13.582031 5.828125 13.582031 C 8.503906 13.582031 10.671875 15.75 10.671875 18.421875 Z M 10.671875 18.421875 " clip-rule="nonzero"/></clipPath><clipPath id="fe5c7e6465"><path d="M 12.191406 13.742188 L 21.875 13.742188 L 21.875 23.425781 L 12.191406 23.425781 Z M 12.191406 13.742188 " clip-rule="nonzero"/></clipPath><clipPath id="7d21c8f72f"><path d="M 21.875 18.582031 C 21.875 21.257812 19.707031 23.425781 17.035156 23.425781 C 14.359375 23.425781 12.191406 21.257812 12.191406 18.582031 C 12.191406 15.910156 14.359375 13.742188 17.035156 13.742188 C 19.707031 13.742188 21.875 15.910156 21.875 18.582031 Z M 21.875 18.582031 " clip-rule="nonzero"/></clipPath><clipPath id="95d257a744"><path d="M 23.421875 13.582031 L 33.105469 13.582031 L 33.105469 23.265625 L 23.421875 23.265625 Z M 23.421875 13.582031 " clip-rule="nonzero"/></clipPath><clipPath id="ab9920ebb0"><path d="M 33.105469 18.421875 C 33.105469 21.097656 30.9375 23.265625 28.265625 23.265625 C 25.589844 23.265625 23.421875 21.097656 23.421875 18.421875 C 23.421875 15.75 25.589844 13.582031 28.265625 13.582031 C 30.9375 13.582031 33.105469 15.75 33.105469 18.421875 Z M 33.105469 18.421875 " clip-rule="nonzero"/></clipPath></defs><g fill="#000000" fill-opacity="1"><g transform="translate(37.361315, 24.124657)"><g><path d="M 7.828125 0 L 12.726562 -13.890625 L 9.976562 -13.890625 L 6.390625 -2.875 L 2.804688 -13.890625 L 0.0546875 -13.890625 L 4.953125 0 Z M 7.828125 0 "/></g></g></g><g fill="#000000" fill-opacity="1"><g transform="translate(50.139584, 24.124657)"><g><path d="M 5.9375 0 L 9.722656 -10.214844 L 7.101562 -10.214844 L 4.953125 -3.769531 L 2.839844 -10.214844 L 0.21875 -10.214844 L 3.988281 0 Z M 5.9375 0 "/></g></g></g><g fill="#000000" fill-opacity="1"><g transform="translate(60.078247, 24.124657)"><g><path d="M 10.503906 0 L 10.503906 -2.347656 L 3.859375 -2.347656 L 3.859375 -5.789062 L 9.8125 -5.789062 L 9.8125 -8.121094 L 3.859375 -8.121094 L 3.859375 -11.542969 L 10.503906 -11.542969 L 10.503906 -13.890625 L 1.238281 -13.890625 L 1.238281 0 Z M 10.503906 0 "/></g></g></g><g fill="#000000" fill-opacity="1"><g transform="translate(71.382103, 24.124657)"><g/></g></g><g fill="#000000" fill-opacity="1"><g transform="translate(76.26448, 24.124657)"><g><path d="M 3.113281 0 L 3.113281 -12.179688 L 9.339844 0 L 11.78125 0 L 11.78125 -13.890625 L 10.125 -13.890625 L 10.125 -1.675781 L 3.878906 -13.890625 L 1.4375 -13.890625 L 1.4375 0 Z M 3.113281 0 "/></g></g></g><g fill="#000000" fill-opacity="1"><g transform="translate(89.497821, 24.124657)"><g><path d="M 5.789062 0.183594 C 8.703125 0.183594 10.742188 -2.039062 10.742188 -5.078125 C 10.742188 -8.066406 8.667969 -10.25 5.789062 -10.25 C 2.914062 -10.25 0.875 -8.066406 0.875 -5.078125 C 0.875 -2.003906 2.914062 0.183594 5.789062 0.183594 Z M 5.789062 -1.183594 C 3.878906 -1.183594 2.421875 -2.804688 2.421875 -5.078125 C 2.421875 -7.265625 3.859375 -8.886719 5.789062 -8.886719 C 7.738281 -8.886719 9.175781 -7.226562 9.175781 -5.078125 C 9.175781 -2.839844 7.71875 -1.183594 5.789062 -1.183594 Z M 5.789062 -1.183594 "/></g></g></g><g fill="#000000" fill-opacity="1"><g transform="translate(101.129324, 24.124657)"><g><path d="M 5.898438 0 L 5.898438 -1.367188 L 4.863281 -1.367188 C 3.734375 -1.367188 3.660156 -1.949219 3.660156 -2.839844 L 3.660156 -8.703125 L 5.917969 -8.703125 L 5.917969 -10.070312 L 3.660156 -10.070312 L 3.660156 -13.890625 L 2.113281 -13.890625 L 2.113281 -10.070312 L 0.492188 -10.070312 L 0.492188 -8.703125 L 2.113281 -8.703125 L 2.113281 -2.53125 C 2.113281 -0.511719 2.984375 0 4.496094 0 Z M 5.898438 0 "/></g></g></g><g fill="#000000" fill-opacity="1"><g transform="translate(107.700488, 24.124657)"><g><path d="M 4.699219 0.183594 C 5.84375 0.183594 6.71875 -0.328125 7.683594 -1.566406 L 7.683594 0 L 9.230469 0 L 9.230469 -10.070312 L 7.683594 -10.070312 L 7.683594 -5.773438 C 7.683594 -3.714844 7.429688 -2.621094 6.773438 -1.929688 C 6.316406 -1.4375 5.699219 -1.183594 4.933594 -1.183594 C 4.242188 -1.183594 3.734375 -1.367188 3.386719 -1.746094 C 2.984375 -2.203125 2.804688 -2.914062 2.804688 -4.003906 L 2.804688 -10.070312 L 1.257812 -10.070312 L 1.257812 -4.003906 C 1.257812 -2.839844 1.402344 -2.019531 1.730469 -1.402344 C 2.292969 -0.347656 3.277344 0.183594 4.699219 0.183594 Z M 4.699219 0.183594 "/></g></g></g><g fill="#000000" fill-opacity="1"><g transform="translate(118.221636, 24.124657)"><g><path d="M 4.496094 0 L 4.496094 -1.367188 L 4.003906 -1.367188 C 2.875 -1.367188 2.804688 -1.875 2.804688 -2.765625 L 2.804688 -13.890625 L 1.257812 -13.890625 L 1.257812 -2.53125 C 1.257812 -0.511719 2.128906 0 3.640625 0 Z M 4.496094 0 "/></g></g></g><g fill="#000000" fill-opacity="1"><g transform="translate(123.263771, 24.124657)"><g><path d="M 2.074219 -11.796875 C 2.730469 -11.796875 3.257812 -12.308594 3.257812 -12.945312 C 3.257812 -13.5625 2.730469 -14.074219 2.074219 -14.074219 C 1.421875 -14.074219 0.890625 -13.5625 0.890625 -12.945312 C 0.890625 -12.308594 1.421875 -11.796875 2.074219 -11.796875 Z M 2.839844 0 L 2.839844 -10.070312 L 1.292969 -10.070312 L 1.292969 0 Z M 2.839844 0 "/></g></g></g><g fill="#000000" fill-opacity="1"><g transform="translate(127.395773, 24.124657)"><g><path d="M 5.351562 0.183594 C 7.828125 0.183594 9.230469 -1.039062 9.230469 -2.894531 C 9.230469 -5.152344 7.191406 -5.554688 5.390625 -5.898438 C 4.003906 -6.171875 2.75 -6.410156 2.75 -7.484375 C 2.75 -8.355469 3.53125 -8.886719 4.863281 -8.886719 C 6.191406 -8.886719 7.191406 -8.320312 7.5 -7.046875 L 8.941406 -7.046875 C 8.59375 -9.050781 7.046875 -10.25 4.863281 -10.25 C 2.804688 -10.25 1.203125 -9.25 1.203125 -7.355469 C 1.203125 -5.296875 3.09375 -4.914062 4.84375 -4.570312 C 6.316406 -4.277344 7.683594 -3.988281 7.683594 -2.730469 C 7.683594 -1.710938 6.738281 -1.183594 5.371094 -1.183594 C 3.570312 -1.183594 2.660156 -2.019531 2.402344 -3.242188 L 0.78125 -3.242188 C 1.128906 -1.128906 2.785156 0.183594 5.351562 0.183594 Z M 5.351562 0.183594 "/></g></g></g><g fill="#000000" fill-opacity="1"><g transform="translate(137.534658, 24.124657)"><g><path d="M 5.898438 0 L 5.898438 -1.367188 L 4.863281 -1.367188 C 3.734375 -1.367188 3.660156 -1.949219 3.660156 -2.839844 L 3.660156 -8.703125 L 5.917969 -8.703125 L 5.917969 -10.070312 L 3.660156 -10.070312 L 3.660156 -13.890625 L 2.113281 -13.890625 L 2.113281 -10.070312 L 0.492188 -10.070312 L 0.492188 -8.703125 L 2.113281 -8.703125 L 2.113281 -2.53125 C 2.113281 -0.511719 2.984375 0 4.496094 0 Z M 5.898438 0 "/></g></g></g><g clip-path="url(#62e5615796)"><g clip-path="url(#619cd9b52f)"><path fill="#2684ff" d="M 0.988281 13.582031 L 10.671875 13.582031 L 10.671875 23.265625 L 0.988281 23.265625 Z M 0.988281 13.582031 " fill-opacity="1" fill-rule="nonzero"/></g></g><g clip-path="url(#fe5c7e6465)"><g clip-path="url(#7d21c8f72f)"><path fill="#2684ff" d="M 12.191406 13.742188 L 21.875 13.742188 L 21.875 23.425781 L 12.191406 23.425781 Z M 12.191406 13.742188 " fill-opacity="1" fill-rule="nonzero"/></g></g><g clip-path="url(#95d257a744)"><g clip-path="url(#ab9920ebb0)"><path fill="#2684ff" d="M 23.421875 13.582031 L 33.105469 13.582031 L 33.105469 23.265625 L 23.421875 23.265625 Z M 23.421875 13.582031 " fill-opacity="1" fill-rule="nonzero"/></g></g><g fill="#000000" fill-opacity="1"><g transform="translate(88.47235, 31.427749)"><g><path d="M 1.722656 -2.890625 C 1.300781 -2.890625 0.957031 -2.671875 0.707031 -2.308594 L 0.707031 -2.835938 L 0.371094 -2.835938 L 0.371094 1.105469 L 0.707031 1.105469 L 0.707031 -0.527344 C 0.960938 -0.15625 1.308594 0.0507812 1.722656 0.0507812 C 2.460938 0.0507812 2.960938 -0.558594 2.960938 -1.421875 C 2.960938 -2.277344 2.460938 -2.890625 1.722656 -2.890625 Z M 1.691406 -2.589844 C 2.269531 -2.589844 2.625 -2.082031 2.625 -1.421875 C 2.625 -0.753906 2.269531 -0.25 1.691406 -0.25 C 1.117188 -0.25 0.699219 -0.75 0.699219 -1.421875 C 0.699219 -2.089844 1.117188 -2.589844 1.691406 -2.589844 Z M 1.691406 -2.589844 "/></g></g></g><g fill="#000000" fill-opacity="1"><g transform="translate(91.692143, 31.427749)"><g><path d="M 1.605469 0.0507812 C 2.410156 0.0507812 2.976562 -0.585938 2.976562 -1.429688 C 2.976562 -2.261719 2.398438 -2.890625 1.605469 -2.890625 C 0.816406 -2.890625 0.25 -2.261719 0.25 -1.429688 C 0.25 -0.574219 0.816406 0.0507812 1.605469 0.0507812 Z M 1.605469 -0.25 C 1.023438 -0.25 0.585938 -0.746094 0.585938 -1.429688 C 0.585938 -2.09375 1.019531 -2.589844 1.605469 -2.589844 C 2.203125 -2.589844 2.640625 -2.089844 2.640625 -1.429688 C 2.640625 -0.753906 2.195312 -0.25 1.605469 -0.25 Z M 1.605469 -0.25 "/></g></g></g><g fill="#000000" fill-opacity="1"><g transform="translate(94.922267, 31.427749)"><g><path d="M 1.265625 0 L 2.082031 -2.394531 L 2.882812 0 L 3.199219 0 L 4.019531 -2.835938 L 3.667969 -2.835938 L 3.027344 -0.507812 L 2.234375 -2.835938 L 1.921875 -2.835938 L 1.125 -0.511719 L 0.492188 -2.835938 L 0.140625 -2.835938 L 0.957031 0 Z M 1.265625 0 "/></g></g></g><g fill="#000000" fill-opacity="1"><g transform="translate(99.082668, 31.427749)"><g><path d="M 1.601562 0.0507812 C 2.285156 0.0507812 2.71875 -0.367188 2.882812 -0.894531 L 2.527344 -0.894531 C 2.398438 -0.539062 2.074219 -0.25 1.601562 -0.25 C 1.167969 -0.25 0.816406 -0.523438 0.660156 -0.964844 C 0.613281 -1.09375 0.589844 -1.214844 0.578125 -1.359375 L 2.945312 -1.359375 C 2.945312 -1.417969 2.945312 -1.476562 2.941406 -1.535156 C 2.875 -2.324219 2.378906 -2.890625 1.597656 -2.890625 C 0.757812 -2.890625 0.25 -2.203125 0.25 -1.417969 C 0.25 -0.578125 0.8125 0.0507812 1.601562 0.0507812 Z M 0.597656 -1.632812 C 0.613281 -1.746094 0.652344 -1.890625 0.703125 -2.003906 C 0.863281 -2.371094 1.1875 -2.589844 1.601562 -2.589844 C 2.011719 -2.589844 2.363281 -2.367188 2.527344 -1.984375 C 2.578125 -1.867188 2.597656 -1.761719 2.621094 -1.632812 Z M 0.597656 -1.632812 "/></g></g></g><g fill="#000000" fill-opacity="1"><g transform="translate(102.27145, 31.427749)"><g><path d="M 1.578125 -2.890625 C 1.179688 -2.890625 0.890625 -2.730469 0.703125 -2.414062 L 0.703125 -2.835938 L 0.367188 -2.835938 L 0.367188 0 L 0.703125 0 L 0.703125 -1.386719 C 0.703125 -1.808594 0.769531 -2.101562 0.933594 -2.308594 C 1.070312 -2.480469 1.269531 -2.558594 1.539062 -2.558594 L 1.667969 -2.558594 L 1.667969 -2.890625 Z M 1.578125 -2.890625 "/></g></g></g><g fill="#000000" fill-opacity="1"><g transform="translate(104.05448, 31.427749)"><g><path d="M 1.601562 0.0507812 C 2.285156 0.0507812 2.71875 -0.367188 2.882812 -0.894531 L 2.527344 -0.894531 C 2.398438 -0.539062 2.074219 -0.25 1.601562 -0.25 C 1.167969 -0.25 0.816406 -0.523438 0.660156 -0.964844 C 0.613281 -1.09375 0.589844 -1.214844 0.578125 -1.359375 L 2.945312 -1.359375 C 2.945312 -1.417969 2.945312 -1.476562 2.941406 -1.535156 C 2.875 -2.324219 2.378906 -2.890625 1.597656 -2.890625 C 0.757812 -2.890625 0.25 -2.203125 0.25 -1.417969 C 0.25 -0.578125 0.8125 0.0507812 1.601562 0.0507812 Z M 0.597656 -1.632812 C 0.613281 -1.746094 0.652344 -1.890625 0.703125 -2.003906 C 0.863281 -2.371094 1.1875 -2.589844 1.601562 -2.589844 C 2.011719 -2.589844 2.363281 -2.367188 2.527344 -1.984375 C 2.578125 -1.867188 2.597656 -1.761719 2.621094 -1.632812 Z M 0.597656 -1.632812 "/></g></g></g><g fill="#000000" fill-opacity="1"><g transform="translate(107.243261, 31.427749)"><g><path d="M 1.5 0.0507812 C 1.917969 0.0507812 2.261719 -0.164062 2.511719 -0.527344 L 2.511719 0 L 2.847656 0 L 2.847656 -3.941406 L 2.511719 -3.941406 L 2.511719 -2.308594 C 2.257812 -2.683594 1.914062 -2.890625 1.5 -2.890625 C 0.757812 -2.890625 0.257812 -2.277344 0.257812 -1.417969 C 0.257812 -0.558594 0.757812 0.0507812 1.5 0.0507812 Z M 1.53125 -0.25 C 0.949219 -0.25 0.59375 -0.753906 0.59375 -1.417969 C 0.59375 -2.082031 0.949219 -2.589844 1.53125 -2.589844 C 2.101562 -2.589844 2.523438 -2.089844 2.523438 -1.417969 C 2.523438 -0.75 2.101562 -0.25 1.53125 -0.25 Z M 1.53125 -0.25 "/></g></g></g><g fill="#000000" fill-opacity="1"><g transform="translate(110.463055, 31.427749)"><g/></g></g><g fill="#000000" fill-opacity="1"><g transform="translate(111.910155, 31.427749)"><g><path d="M 1.722656 0.0507812 C 2.460938 0.0507812 2.960938 -0.558594 2.960938 -1.417969 C 2.960938 -2.277344 2.460938 -2.890625 1.722656 -2.890625 C 1.308594 -2.890625 0.960938 -2.683594 0.707031 -2.308594 L 0.707031 -3.941406 L 0.371094 -3.941406 L 0.371094 0 L 0.707031 0 L 0.707031 -0.527344 C 0.957031 -0.164062 1.300781 0.0507812 1.722656 0.0507812 Z M 1.691406 -0.25 C 1.117188 -0.25 0.699219 -0.75 0.699219 -1.417969 C 0.699219 -2.089844 1.117188 -2.589844 1.691406 -2.589844 C 2.269531 -2.589844 2.625 -2.082031 2.625 -1.417969 C 2.625 -0.753906 2.269531 -0.25 1.691406 -0.25 Z M 1.691406 -0.25 "/></g></g></g><g fill="#000000" fill-opacity="1"><g transform="translate(115.129948, 31.427749)"><g><path d="M 0.8125 1.105469 C 0.988281 1.105469 1.242188 1.066406 1.402344 0.636719 L 2.683594 -2.835938 L 2.308594 -2.835938 L 1.453125 -0.453125 L 0.476562 -2.835938 L 0.101562 -2.835938 L 1.28125 -0.0273438 L 1.074219 0.523438 C 0.988281 0.75 0.894531 0.800781 0.65625 0.800781 L 0.347656 0.800781 L 0.347656 1.105469 Z M 0.8125 1.105469 "/></g></g></g><g fill="#000000" fill-opacity="1"><g transform="translate(117.93359, 31.427749)"><g/></g></g><g fill="#000000" fill-opacity="1"><g transform="translate(119.319843, 31.427749)"><g><path d="M 1.675781 0 L 1.675781 -0.386719 L 1.378906 -0.386719 C 1.058594 -0.386719 1.039062 -0.554688 1.039062 -0.804688 L 1.039062 -2.46875 L 1.679688 -2.46875 L 1.679688 -2.859375 L 1.039062 -2.859375 L 1.039062 -3.941406 L 0.597656 -3.941406 L 0.597656 -2.859375 L 0.140625 -2.859375 L 0.140625 -2.46875 L 0.597656 -2.46875 L 0.597656 -0.71875 C 0.597656 -0.144531 0.847656 0 1.277344 0 Z M 1.675781 0 "/></g></g></g><g fill="#000000" fill-opacity="1"><g transform="translate(121.185565, 31.427749)"><g><path d="M 0.804688 0 L 0.804688 -1.503906 C 0.804688 -1.859375 0.894531 -2.101562 1.058594 -2.261719 C 1.195312 -2.398438 1.378906 -2.46875 1.613281 -2.46875 L 1.761719 -2.46875 L 1.761719 -2.910156 L 1.742188 -2.910156 C 1.355469 -2.910156 1.070312 -2.785156 0.804688 -2.464844 L 0.804688 -2.859375 L 0.367188 -2.859375 L 0.367188 0 Z M 0.804688 0 "/></g></g></g><g fill="#000000" fill-opacity="1"><g transform="translate(123.061623, 31.427749)"><g><path d="M 0.589844 -3.347656 C 0.773438 -3.347656 0.925781 -3.492188 0.925781 -3.675781 C 0.925781 -3.851562 0.773438 -3.996094 0.589844 -3.996094 C 0.402344 -3.996094 0.253906 -3.851562 0.253906 -3.675781 C 0.253906 -3.492188 0.402344 -3.347656 0.589844 -3.347656 Z M 0.804688 0 L 0.804688 -2.859375 L 0.367188 -2.859375 L 0.367188 0 Z M 0.804688 0 "/></g></g></g><g fill="#000000" fill-opacity="1"><g transform="translate(124.234803, 31.427749)"><g><path d="M 1.746094 -2.910156 C 1.355469 -2.910156 1.101562 -2.785156 0.8125 -2.414062 L 0.8125 -2.859375 L 0.371094 -2.859375 L 0.371094 1.085938 L 0.8125 1.085938 L 0.8125 -0.445312 C 1.105469 -0.0625 1.363281 0.0507812 1.746094 0.0507812 C 2.515625 0.0507812 3.019531 -0.554688 3.019531 -1.429688 C 3.019531 -2.304688 2.515625 -2.910156 1.746094 -2.910156 Z M 1.707031 -2.523438 C 2.242188 -2.523438 2.578125 -2.050781 2.578125 -1.429688 C 2.578125 -0.804688 2.242188 -0.335938 1.707031 -0.335938 C 1.171875 -0.335938 0.796875 -0.796875 0.796875 -1.429688 C 0.796875 -2.0625 1.171875 -2.523438 1.707031 -2.523438 Z M 1.707031 -2.523438 "/></g></g></g><g fill="#000000" fill-opacity="1"><g transform="translate(127.511441, 31.427749)"><g><path d="M 1.277344 0 L 1.277344 -0.386719 L 1.136719 -0.386719 C 0.816406 -0.386719 0.796875 -0.53125 0.796875 -0.785156 L 0.796875 -3.941406 L 0.355469 -3.941406 L 0.355469 -0.71875 C 0.355469 -0.144531 0.605469 0 1.035156 0 Z M 1.277344 0 "/></g></g></g><g fill="#000000" fill-opacity="1"><g transform="translate(128.943032, 31.427749)"><g><path d="M 1.636719 0.0507812 C 2.347656 0.0507812 2.78125 -0.382812 2.957031 -0.921875 L 2.484375 -0.921875 C 2.363281 -0.605469 2.066406 -0.335938 1.632812 -0.335938 C 1.21875 -0.335938 0.882812 -0.621094 0.738281 -1.058594 C 0.707031 -1.148438 0.6875 -1.257812 0.683594 -1.34375 L 3.007812 -1.34375 L 3.007812 -1.5 C 3.007812 -2.417969 2.347656 -2.910156 1.628906 -2.910156 C 0.746094 -2.910156 0.25 -2.195312 0.25 -1.421875 C 0.25 -0.578125 0.816406 0.0507812 1.636719 0.0507812 Z M 0.722656 -1.730469 C 0.738281 -1.820312 0.765625 -1.921875 0.804688 -2.011719 C 0.960938 -2.335938 1.257812 -2.523438 1.636719 -2.523438 C 2.003906 -2.523438 2.324219 -2.339844 2.476562 -2.011719 C 2.511719 -1.925781 2.53125 -1.824219 2.539062 -1.730469 Z M 0.722656 -1.730469 "/></g></g></g><g fill="#2684ff" fill-opacity="1"><g transform="translate(132.199883, 31.427749)"><g><path d="M 1.839844 0.0585938 C 2.597656 0.0585938 3.117188 -0.5625 3.117188 -1.453125 C 3.117188 -2.339844 2.597656 -2.960938 1.839844 -2.960938 C 1.5 -2.960938 1.25 -2.863281 1.019531 -2.53125 L 1.019531 -3.941406 L 0.320312 -3.941406 L 0.320312 0 L 1.019531 0 L 1.019531 -0.367188 C 1.25 -0.0429688 1.5 0.0585938 1.839844 0.0585938 Z M 1.679688 -0.542969 C 1.234375 -0.542969 0.929688 -0.914062 0.929688 -1.453125 C 0.929688 -1.988281 1.234375 -2.363281 1.679688 -2.363281 C 2.125 -2.363281 2.414062 -1.980469 2.414062 -1.453125 C 2.414062 -0.925781 2.125 -0.542969 1.679688 -0.542969 Z M 1.679688 -0.542969 "/></g></g></g><g fill="#2684ff" fill-opacity="1"><g transform="translate(135.523035, 31.427749)"><g><path d="M 1.425781 0 L 1.425781 -0.578125 L 1.242188 -0.578125 C 1.070312 -0.578125 1.003906 -0.644531 1.003906 -0.84375 L 1.003906 -3.941406 L 0.304688 -3.941406 L 0.304688 -0.636719 C 0.304688 -0.1875 0.546875 0 0.976562 0 Z M 1.425781 0 "/></g></g></g><g fill="#2684ff" fill-opacity="1"><g transform="translate(137.083831, 31.427749)"><g><path d="M 1.328125 0.0585938 C 1.667969 0.0585938 1.902344 -0.0664062 2.113281 -0.367188 L 2.113281 0 L 2.8125 0 L 2.8125 -2.898438 L 2.113281 -2.898438 L 2.113281 -1.425781 C 2.113281 -1.042969 2.066406 -0.832031 1.949219 -0.691406 C 1.851562 -0.574219 1.707031 -0.515625 1.503906 -0.515625 C 1.339844 -0.515625 1.21875 -0.558594 1.136719 -0.644531 C 1.039062 -0.753906 0.996094 -0.925781 0.996094 -1.226562 L 0.996094 -2.898438 L 0.300781 -2.898438 L 0.300781 -1.230469 C 0.300781 -0.8125 0.332031 -0.613281 0.421875 -0.421875 C 0.578125 -0.101562 0.878906 0.0585938 1.328125 0.0585938 Z M 1.328125 0.0585938 "/></g></g></g><g fill="#2684ff" fill-opacity="1"><g transform="translate(140.215761, 31.427749)"><g><path d="M 1.675781 0.0585938 C 2.449219 0.0585938 2.894531 -0.414062 3.066406 -0.976562 L 2.351562 -0.976562 C 2.257812 -0.738281 2.03125 -0.542969 1.699219 -0.542969 C 1.402344 -0.542969 1.164062 -0.699219 1.027344 -0.964844 C 0.976562 -1.054688 0.929688 -1.183594 0.921875 -1.308594 L 3.109375 -1.308594 L 3.109375 -1.457031 C 3.109375 -2.507812 2.402344 -2.960938 1.652344 -2.960938 C 0.660156 -2.960938 0.195312 -2.191406 0.195312 -1.429688 C 0.195312 -0.574219 0.785156 0.0585938 1.675781 0.0585938 Z M 0.949219 -1.828125 C 0.960938 -1.90625 0.988281 -2.003906 1.066406 -2.097656 C 1.199219 -2.304688 1.417969 -2.410156 1.675781 -2.410156 C 1.925781 -2.410156 2.15625 -2.304688 2.289062 -2.097656 C 2.363281 -2.011719 2.386719 -1.90625 2.398438 -1.828125 Z M 0.949219 -1.828125 "/></g></g></g></svg>