<svg xmlns="http://www.w3.org/2000/svg" xmlns:xlink="http://www.w3.org/1999/xlink" width="200" zoomAndPan="magnify" viewBox="0 0 750 187.499995" height="250" preserveAspectRatio="xMidYMid meet" version="1.0"><defs><g/><clipPath id="209b074847"><path d="M 0.996094 68.625 L 49.933594 68.625 L 49.933594 117.5625 L 0.996094 117.5625 Z M 0.996094 68.625 " clip-rule="nonzero"/></clipPath><clipPath id="b98cf315c8"><path d="M 49.933594 93.09375 C 49.933594 106.609375 38.980469 117.5625 25.464844 117.5625 C 11.953125 117.5625 0.996094 106.609375 0.996094 93.09375 C 0.996094 79.582031 11.953125 68.625 25.464844 68.625 C 38.980469 68.625 49.933594 79.582031 49.933594 93.09375 Z M 49.933594 93.09375 " clip-rule="nonzero"/></clipPath><clipPath id="5f1d772203"><path d="M 57.617188 69.4375 L 106.554688 69.4375 L 106.554688 118.375 L 57.617188 118.375 Z M 57.617188 69.4375 " clip-rule="nonzero"/></clipPath><clipPath id="c5ce545a81"><path d="M 106.554688 93.90625 C 106.554688 107.421875 95.597656 118.375 82.085938 118.375 C 68.570312 118.375 57.617188 107.421875 57.617188 93.90625 C 57.617188 80.394531 68.570312 69.4375 82.085938 69.4375 C 95.597656 69.4375 106.554688 80.394531 106.554688 93.90625 Z M 106.554688 93.90625 " clip-rule="nonzero"/></clipPath><clipPath id="ce9a50b058"><path d="M 114.371094 68.625 L 163.308594 68.625 L 163.308594 117.5625 L 114.371094 117.5625 Z M 114.371094 68.625 " clip-rule="nonzero"/></clipPath><clipPath id="9714bec11d"><path d="M 163.308594 93.09375 C 163.308594 106.609375 152.351562 117.5625 138.839844 117.5625 C 125.324219 117.5625 114.371094 106.609375 114.371094 93.09375 C 114.371094 79.582031 125.324219 68.625 138.839844 68.625 C 152.351562 68.625 163.308594 79.582031 163.308594 93.09375 Z M 163.308594 93.09375 " clip-rule="nonzero"/></clipPath><clipPath id="67313dd839"><path d="M 602.398438 50.757812 L 618.019531 50.757812 L 618.019531 66.382812 L 602.398438 66.382812 Z M 602.398438 50.757812 " clip-rule="nonzero"/></clipPath><clipPath id="99c6c7ae67"><path d="M 618.019531 58.570312 C 618.019531 62.886719 614.523438 66.382812 610.207031 66.382812 C 605.894531 66.382812 602.398438 62.886719 602.398438 58.570312 C 602.398438 54.257812 605.894531 50.757812 610.207031 50.757812 C 614.523438 50.757812 618.019531 54.257812 618.019531 58.570312 Z M 618.019531 58.570312 " clip-rule="nonzero"/></clipPath></defs><g fill="#000000" fill-opacity="1"><g transform="translate(187.150791, 131.956827)"><g><path d="M 16.898438 0 L 22.355469 -16.792969 L 53.480469 -16.792969 L 59.042969 0 L 75.191406 0 L 46.421875 -81.609375 L 29.519531 -81.609375 L 0.75 0 Z M 37.96875 -64.816406 L 49.199219 -30.269531 L 26.738281 -30.269531 Z M 37.96875 -64.816406 "/></g></g></g><g fill="#000000" fill-opacity="1"><g transform="translate(263.084853, 131.956827)"><g><path d="M 22.675781 0 L 22.675781 -81.609375 L 7.273438 -81.609375 L 7.273438 0 Z M 22.675781 0 "/></g></g></g><g fill="#000000" fill-opacity="1"><g transform="translate(293.030667, 131.956827)"><g/></g></g><g fill="#000000" fill-opacity="1"><g transform="translate(321.719187, 131.956827)"><g><path d="M 18.289062 0 L 18.289062 -71.554688 L 54.871094 0 L 69.203125 0 L 69.203125 -81.609375 L 59.46875 -81.609375 L 59.46875 -9.839844 L 22.78125 -81.609375 L 8.449219 -81.609375 L 8.449219 0 Z M 18.289062 0 "/></g></g></g><g fill="#000000" fill-opacity="1"><g transform="translate(399.471395, 131.956827)"><g><path d="M 34.011719 1.070312 C 51.125 1.070312 63.105469 -11.980469 63.105469 -29.839844 C 63.105469 -47.382812 50.914062 -60.21875 34.011719 -60.21875 C 17.113281 -60.21875 5.132812 -47.382812 5.132812 -29.839844 C 5.132812 -11.765625 17.113281 1.070312 34.011719 1.070312 Z M 34.011719 -6.953125 C 22.78125 -6.953125 14.226562 -16.472656 14.226562 -29.839844 C 14.226562 -42.675781 22.675781 -52.195312 34.011719 -52.195312 C 45.457031 -52.195312 53.90625 -42.460938 53.90625 -29.839844 C 53.90625 -16.6875 45.351562 -6.953125 34.011719 -6.953125 Z M 34.011719 -6.953125 "/></g></g></g><g fill="#000000" fill-opacity="1"><g transform="translate(467.812036, 131.956827)"><g><path d="M 34.65625 0 L 34.65625 -8.023438 L 28.558594 -8.023438 C 21.925781 -8.023438 21.5 -11.445312 21.5 -16.6875 L 21.5 -51.125 L 34.761719 -51.125 L 34.761719 -59.148438 L 21.5 -59.148438 L 21.5 -81.609375 L 12.40625 -81.609375 L 12.40625 -59.148438 L 2.886719 -59.148438 L 2.886719 -51.125 L 12.40625 -51.125 L 12.40625 -14.867188 C 12.40625 -2.996094 17.542969 0 26.417969 0 Z M 34.65625 0 "/></g></g></g><g fill="#000000" fill-opacity="1"><g transform="translate(506.420759, 131.956827)"><g><path d="M 27.59375 1.070312 C 34.332031 1.070312 39.46875 -1.925781 45.136719 -9.199219 L 45.136719 0 L 54.226562 0 L 54.226562 -59.148438 L 45.136719 -59.148438 L 45.136719 -33.90625 C 45.136719 -21.820312 43.640625 -15.402344 39.789062 -11.335938 C 37.113281 -8.449219 33.476562 -6.953125 28.984375 -6.953125 C 24.921875 -6.953125 21.925781 -8.023438 19.894531 -10.269531 C 17.542969 -12.941406 16.472656 -17.113281 16.472656 -23.53125 L 16.472656 -59.148438 L 7.378906 -59.148438 L 7.378906 -23.53125 C 7.378906 -16.6875 8.234375 -11.871094 10.160156 -8.234375 C 13.476562 -2.03125 19.253906 1.070312 27.59375 1.070312 Z M 27.59375 1.070312 "/></g></g></g><g fill="#000000" fill-opacity="1"><g transform="translate(568.237503, 131.956827)"><g><path d="M 26.417969 0 L 26.417969 -8.023438 L 23.53125 -8.023438 C 16.898438 -8.023438 16.472656 -11.015625 16.472656 -16.257812 L 16.472656 -81.609375 L 7.378906 -81.609375 L 7.378906 -14.867188 C 7.378906 -2.996094 12.515625 0 21.390625 0 Z M 26.417969 0 "/></g></g></g><g fill="#000000" fill-opacity="1"><g transform="translate(597.862489, 131.956827)"><g><path d="M 12.191406 -69.308594 C 16.042969 -69.308594 19.144531 -72.304688 19.144531 -76.046875 C 19.144531 -79.683594 16.042969 -82.679688 12.191406 -82.679688 C 8.34375 -82.679688 5.242188 -79.683594 5.242188 -76.046875 C 5.242188 -72.304688 8.34375 -69.308594 12.191406 -69.308594 Z M 16.6875 0 L 16.6875 -59.148438 L 7.59375 -59.148438 L 7.59375 0 Z M 16.6875 0 "/></g></g></g><g fill="#000000" fill-opacity="1"><g transform="translate(622.139999, 131.956827)"><g><path d="M 31.445312 1.070312 C 45.992188 1.070312 54.226562 -6.097656 54.226562 -17.007812 C 54.226562 -30.269531 42.25 -32.621094 31.660156 -34.65625 C 23.53125 -36.257812 16.152344 -37.648438 16.152344 -43.960938 C 16.152344 -49.09375 20.75 -52.195312 28.558594 -52.195312 C 36.367188 -52.195312 42.25 -48.878906 44.066406 -41.394531 L 52.515625 -41.394531 C 50.484375 -53.160156 41.394531 -60.21875 28.558594 -60.21875 C 16.472656 -60.21875 7.058594 -54.335938 7.058594 -43.210938 C 7.058594 -31.125 18.183594 -28.878906 28.449219 -26.847656 C 37.113281 -25.136719 45.136719 -23.425781 45.136719 -16.042969 C 45.136719 -10.054688 39.574219 -6.953125 31.554688 -6.953125 C 20.964844 -6.953125 15.617188 -11.871094 14.117188 -19.039062 L 4.597656 -19.039062 C 6.632812 -6.632812 16.363281 1.070312 31.445312 1.070312 Z M 31.445312 1.070312 "/></g></g></g><g fill="#000000" fill-opacity="1"><g transform="translate(681.710799, 131.956827)"><g><path d="M 34.65625 0 L 34.65625 -8.023438 L 28.558594 -8.023438 C 21.925781 -8.023438 21.5 -11.445312 21.5 -16.6875 L 21.5 -51.125 L 34.761719 -51.125 L 34.761719 -59.148438 L 21.5 -59.148438 L 21.5 -81.609375 L 12.40625 -81.609375 L 12.40625 -59.148438 L 2.886719 -59.148438 L 2.886719 -51.125 L 12.40625 -51.125 L 12.40625 -14.867188 C 12.40625 -2.996094 17.542969 0 26.417969 0 Z M 34.65625 0 "/></g></g></g><g clip-path="url(#209b074847)"><g clip-path="url(#b98cf315c8)"><path fill="#2684ff" d="M 0.996094 68.625 L 49.933594 68.625 L 49.933594 117.5625 L 0.996094 117.5625 Z M 0.996094 68.625 " fill-opacity="1" fill-rule="nonzero"/></g></g><g clip-path="url(#5f1d772203)"><g clip-path="url(#c5ce545a81)"><path fill="#2684ff" d="M 57.617188 69.4375 L 106.554688 69.4375 L 106.554688 118.375 L 57.617188 118.375 Z M 57.617188 69.4375 " fill-opacity="1" fill-rule="nonzero"/></g></g><g clip-path="url(#ce9a50b058)"><g clip-path="url(#9714bec11d)"><path fill="#2684ff" d="M 114.371094 68.625 L 163.308594 68.625 L 163.308594 117.5625 L 114.371094 117.5625 Z M 114.371094 68.625 " fill-opacity="1" fill-rule="nonzero"/></g></g><g clip-path="url(#67313dd839)"><g clip-path="url(#99c6c7ae67)"><path fill="#2684ff" d="M 602.398438 50.757812 L 618.019531 50.757812 L 618.019531 66.382812 L 602.398438 66.382812 Z M 602.398438 50.757812 " fill-opacity="1" fill-rule="nonzero"/></g></g></svg>