<svg xmlns="http://www.w3.org/2000/svg" xmlns:xlink="http://www.w3.org/1999/xlink" width="200" zoomAndPan="magnify" viewBox="0 0 150 37.5" height="50" preserveAspectRatio="xMidYMid meet" version="1.0"><defs><g/><clipPath id="3713f470d0"><path d="M 10 8 L 17 8 L 17 15 L 10 15 Z M 10 8 " clip-rule="nonzero"/></clipPath><clipPath id="97b4d66dd6"><path d="M 13.144531 6.855469 L 17.46875 11.179688 L 13.144531 15.507812 L 8.816406 11.179688 Z M 13.144531 6.855469 " clip-rule="nonzero"/></clipPath><clipPath id="453139a488"><path d="M 15.304688 13.34375 C 14.113281 14.539062 12.175781 14.539062 10.980469 13.34375 C 9.785156 12.148438 9.785156 10.210938 10.980469 9.019531 C 12.175781 7.824219 14.113281 7.824219 15.304688 9.019531 C 16.5 10.210938 16.5 12.148438 15.304688 13.34375 Z M 15.304688 13.34375 " clip-rule="nonzero"/></clipPath><clipPath id="9a475d2634"><path d="M 15 13 L 22 13 L 22 20 L 15 20 Z M 15 13 " clip-rule="nonzero"/></clipPath><clipPath id="2f2e7efb1c"><path d="M 18.078125 11.933594 L 22.40625 16.257812 L 18.078125 20.585938 L 13.75 16.257812 Z M 18.078125 11.933594 " clip-rule="nonzero"/></clipPath><clipPath id="ad5001df61"><path d="M 20.242188 18.421875 C 19.046875 19.617188 17.109375 19.617188 15.914062 18.421875 C 14.71875 17.226562 14.71875 15.289062 15.914062 14.097656 C 17.109375 12.902344 19.046875 12.902344 20.242188 14.097656 C 21.4375 15.292969 21.4375 17.226562 20.242188 18.421875 Z M 20.242188 18.421875 " clip-rule="nonzero"/></clipPath><clipPath id="2333751a16"><path d="M 20 18 L 27 18 L 27 25 L 20 25 Z M 20 18 " clip-rule="nonzero"/></clipPath><clipPath id="9c03a4fbf9"><path d="M 23.167969 16.878906 L 27.496094 21.207031 L 23.167969 25.535156 L 18.839844 21.207031 Z M 23.167969 16.878906 " clip-rule="nonzero"/></clipPath><clipPath id="f02b17c6ec"><path d="M 25.332031 23.371094 C 24.136719 24.566406 22.199219 24.566406 21.003906 23.371094 C 19.808594 22.175781 19.808594 20.238281 21.003906 19.042969 C 22.199219 17.847656 24.136719 17.847656 25.332031 19.042969 C 26.527344 20.238281 26.527344 22.175781 25.332031 23.371094 Z M 25.332031 23.371094 " clip-rule="nonzero"/></clipPath></defs><g fill="#000000" fill-opacity="1"><g transform="translate(28.722336, 21.432847)"><g><path d="M 7.828125 0 L 12.726562 -13.890625 L 9.976562 -13.890625 L 6.390625 -2.875 L 2.804688 -13.890625 L 0.0546875 -13.890625 L 4.953125 0 Z M 7.828125 0 "/></g></g></g><g fill="#000000" fill-opacity="1"><g transform="translate(41.500605, 21.432847)"><g><path d="M 5.9375 0 L 9.722656 -10.214844 L 7.101562 -10.214844 L 4.953125 -3.769531 L 2.839844 -10.214844 L 0.21875 -10.214844 L 3.988281 0 Z M 5.9375 0 "/></g></g></g><g fill="#000000" fill-opacity="1"><g transform="translate(51.439267, 21.432847)"><g><path d="M 10.503906 0 L 10.503906 -2.347656 L 3.859375 -2.347656 L 3.859375 -5.789062 L 9.8125 -5.789062 L 9.8125 -8.121094 L 3.859375 -8.121094 L 3.859375 -11.542969 L 10.503906 -11.542969 L 10.503906 -13.890625 L 1.238281 -13.890625 L 1.238281 0 Z M 10.503906 0 "/></g></g></g><g fill="#000000" fill-opacity="1"><g transform="translate(62.743123, 21.432847)"><g/></g></g><g fill="#000000" fill-opacity="1"><g transform="translate(67.6255, 21.432847)"><g><path d="M 3.113281 0 L 3.113281 -12.179688 L 9.339844 0 L 11.78125 0 L 11.78125 -13.890625 L 10.125 -13.890625 L 10.125 -1.675781 L 3.878906 -13.890625 L 1.4375 -13.890625 L 1.4375 0 Z M 3.113281 0 "/></g></g></g><g fill="#000000" fill-opacity="1"><g transform="translate(80.858842, 21.432847)"><g><path d="M 5.789062 0.183594 C 8.703125 0.183594 10.742188 -2.039062 10.742188 -5.078125 C 10.742188 -8.066406 8.667969 -10.25 5.789062 -10.25 C 2.914062 -10.25 0.875 -8.066406 0.875 -5.078125 C 0.875 -2.003906 2.914062 0.183594 5.789062 0.183594 Z M 5.789062 -1.183594 C 3.878906 -1.183594 2.421875 -2.804688 2.421875 -5.078125 C 2.421875 -7.265625 3.859375 -8.886719 5.789062 -8.886719 C 7.738281 -8.886719 9.175781 -7.226562 9.175781 -5.078125 C 9.175781 -2.839844 7.71875 -1.183594 5.789062 -1.183594 Z M 5.789062 -1.183594 "/></g></g></g><g fill="#000000" fill-opacity="1"><g transform="translate(92.490345, 21.432847)"><g><path d="M 5.898438 0 L 5.898438 -1.367188 L 4.863281 -1.367188 C 3.734375 -1.367188 3.660156 -1.949219 3.660156 -2.839844 L 3.660156 -8.703125 L 5.917969 -8.703125 L 5.917969 -10.070312 L 3.660156 -10.070312 L 3.660156 -13.890625 L 2.113281 -13.890625 L 2.113281 -10.070312 L 0.492188 -10.070312 L 0.492188 -8.703125 L 2.113281 -8.703125 L 2.113281 -2.53125 C 2.113281 -0.511719 2.984375 0 4.496094 0 Z M 5.898438 0 "/></g></g></g><g fill="#000000" fill-opacity="1"><g transform="translate(99.061508, 21.432847)"><g><path d="M 4.699219 0.183594 C 5.84375 0.183594 6.71875 -0.328125 7.683594 -1.566406 L 7.683594 0 L 9.230469 0 L 9.230469 -10.070312 L 7.683594 -10.070312 L 7.683594 -5.773438 C 7.683594 -3.714844 7.429688 -2.621094 6.773438 -1.929688 C 6.316406 -1.4375 5.699219 -1.183594 4.933594 -1.183594 C 4.242188 -1.183594 3.734375 -1.367188 3.386719 -1.746094 C 2.984375 -2.203125 2.804688 -2.914062 2.804688 -4.003906 L 2.804688 -10.070312 L 1.257812 -10.070312 L 1.257812 -4.003906 C 1.257812 -2.839844 1.402344 -2.019531 1.730469 -1.402344 C 2.292969 -0.347656 3.277344 0.183594 4.699219 0.183594 Z M 4.699219 0.183594 "/></g></g></g><g fill="#000000" fill-opacity="1"><g transform="translate(109.582656, 21.432847)"><g><path d="M 4.496094 0 L 4.496094 -1.367188 L 4.003906 -1.367188 C 2.875 -1.367188 2.804688 -1.875 2.804688 -2.765625 L 2.804688 -13.890625 L 1.257812 -13.890625 L 1.257812 -2.53125 C 1.257812 -0.511719 2.128906 0 3.640625 0 Z M 4.496094 0 "/></g></g></g><g fill="#000000" fill-opacity="1"><g transform="translate(114.624791, 21.432847)"><g><path d="M 2.074219 -11.796875 C 2.730469 -11.796875 3.257812 -12.308594 3.257812 -12.945312 C 3.257812 -13.5625 2.730469 -14.074219 2.074219 -14.074219 C 1.421875 -14.074219 0.890625 -13.5625 0.890625 -12.945312 C 0.890625 -12.308594 1.421875 -11.796875 2.074219 -11.796875 Z M 2.839844 0 L 2.839844 -10.070312 L 1.292969 -10.070312 L 1.292969 0 Z M 2.839844 0 "/></g></g></g><g fill="#000000" fill-opacity="1"><g transform="translate(118.756793, 21.432847)"><g><path d="M 5.351562 0.183594 C 7.828125 0.183594 9.230469 -1.039062 9.230469 -2.894531 C 9.230469 -5.152344 7.191406 -5.554688 5.390625 -5.898438 C 4.003906 -6.171875 2.75 -6.410156 2.75 -7.484375 C 2.75 -8.355469 3.53125 -8.886719 4.863281 -8.886719 C 6.191406 -8.886719 7.191406 -8.320312 7.5 -7.046875 L 8.941406 -7.046875 C 8.59375 -9.050781 7.046875 -10.25 4.863281 -10.25 C 2.804688 -10.25 1.203125 -9.25 1.203125 -7.355469 C 1.203125 -5.296875 3.09375 -4.914062 4.84375 -4.570312 C 6.316406 -4.277344 7.683594 -3.988281 7.683594 -2.730469 C 7.683594 -1.710938 6.738281 -1.183594 5.371094 -1.183594 C 3.570312 -1.183594 2.660156 -2.019531 2.402344 -3.242188 L 0.78125 -3.242188 C 1.128906 -1.128906 2.785156 0.183594 5.351562 0.183594 Z M 5.351562 0.183594 "/></g></g></g><g fill="#000000" fill-opacity="1"><g transform="translate(128.895678, 21.432847)"><g><path d="M 5.898438 0 L 5.898438 -1.367188 L 4.863281 -1.367188 C 3.734375 -1.367188 3.660156 -1.949219 3.660156 -2.839844 L 3.660156 -8.703125 L 5.917969 -8.703125 L 5.917969 -10.070312 L 3.660156 -10.070312 L 3.660156 -13.890625 L 2.113281 -13.890625 L 2.113281 -10.070312 L 0.492188 -10.070312 L 0.492188 -8.703125 L 2.113281 -8.703125 L 2.113281 -2.53125 C 2.113281 -0.511719 2.984375 0 4.496094 0 Z M 5.898438 0 "/></g></g></g><g clip-path="url(#3713f470d0)"><g clip-path="url(#97b4d66dd6)"><g clip-path="url(#453139a488)"><path fill="#2684ff" d="M 13.144531 6.855469 L 17.46875 11.179688 L 13.144531 15.507812 L 8.816406 11.179688 Z M 13.144531 6.855469 " fill-opacity="1" fill-rule="nonzero"/></g></g></g><g clip-path="url(#9a475d2634)"><g clip-path="url(#2f2e7efb1c)"><g clip-path="url(#ad5001df61)"><path fill="#2684ff" d="M 18.078125 11.933594 L 22.40625 16.257812 L 18.078125 20.585938 L 13.75 16.257812 Z M 18.078125 11.933594 " fill-opacity="1" fill-rule="nonzero"/></g></g></g><g clip-path="url(#2333751a16)"><g clip-path="url(#9c03a4fbf9)"><g clip-path="url(#f02b17c6ec)"><path fill="#2684ff" d="M 23.167969 16.878906 L 27.496094 21.207031 L 23.167969 25.535156 L 18.839844 21.207031 Z M 23.167969 16.878906 " fill-opacity="1" fill-rule="nonzero"/></g></g></g><g fill="#000000" fill-opacity="1"><g transform="translate(42.274189, 30.227728)"><g><path d="M 2.914062 -4.890625 C 2.207031 -4.890625 1.617188 -4.523438 1.199219 -3.910156 L 1.199219 -4.804688 L 0.628906 -4.804688 L 0.628906 1.871094 L 1.199219 1.871094 L 1.199219 -0.894531 C 1.628906 -0.261719 2.214844 0.0859375 2.914062 0.0859375 C 4.164062 0.0859375 5.015625 -0.945312 5.015625 -2.40625 C 5.015625 -3.859375 4.164062 -4.890625 2.914062 -4.890625 Z M 2.863281 -4.382812 C 3.84375 -4.382812 4.445312 -3.527344 4.445312 -2.40625 C 4.445312 -1.277344 3.84375 -0.421875 2.863281 -0.421875 C 1.890625 -0.421875 1.179688 -1.269531 1.179688 -2.40625 C 1.179688 -3.535156 1.890625 -4.382812 2.863281 -4.382812 Z M 2.863281 -4.382812 "/></g></g></g><g fill="#000000" fill-opacity="1"><g transform="translate(47.726394, 30.227728)"><g><path d="M 2.722656 0.0859375 C 4.078125 0.0859375 5.039062 -0.988281 5.039062 -2.425781 C 5.039062 -3.832031 4.0625 -4.890625 2.722656 -4.890625 C 1.382812 -4.890625 0.421875 -3.832031 0.421875 -2.425781 C 0.421875 -0.972656 1.382812 0.0859375 2.722656 0.0859375 Z M 2.722656 -0.421875 C 1.734375 -0.421875 0.988281 -1.261719 0.988281 -2.425781 C 0.988281 -3.542969 1.722656 -4.382812 2.722656 -4.382812 C 3.726562 -4.382812 4.472656 -3.535156 4.472656 -2.425781 C 4.472656 -1.277344 3.71875 -0.421875 2.722656 -0.421875 Z M 2.722656 -0.421875 "/></g></g></g><g fill="#000000" fill-opacity="1"><g transform="translate(53.196092, 30.227728)"><g><path d="M 2.144531 0 L 3.527344 -4.050781 L 4.882812 0 L 5.417969 0 L 6.808594 -4.804688 L 6.214844 -4.804688 L 5.128906 -0.859375 L 3.78125 -4.804688 L 3.253906 -4.804688 L 1.90625 -0.867188 L 0.832031 -4.804688 L 0.234375 -4.804688 L 1.617188 0 Z M 2.144531 0 "/></g></g></g><g fill="#000000" fill-opacity="1"><g transform="translate(60.241068, 30.227728)"><g><path d="M 2.714844 0.0859375 C 3.867188 0.0859375 4.601562 -0.621094 4.882812 -1.515625 L 4.28125 -1.515625 C 4.0625 -0.910156 3.507812 -0.421875 2.714844 -0.421875 C 1.976562 -0.421875 1.382812 -0.882812 1.121094 -1.636719 C 1.042969 -1.855469 0.996094 -2.054688 0.980469 -2.300781 L 4.988281 -2.300781 C 4.988281 -2.398438 4.988281 -2.503906 4.980469 -2.597656 C 4.867188 -3.9375 4.027344 -4.890625 2.703125 -4.890625 C 1.285156 -4.890625 0.421875 -3.726562 0.421875 -2.398438 C 0.421875 -0.980469 1.375 0.0859375 2.714844 0.0859375 Z M 1.015625 -2.765625 C 1.042969 -2.957031 1.101562 -3.203125 1.191406 -3.394531 C 1.460938 -4.015625 2.011719 -4.382812 2.714844 -4.382812 C 3.40625 -4.382812 4 -4.007812 4.28125 -3.359375 C 4.367188 -3.160156 4.402344 -2.984375 4.4375 -2.765625 Z M 1.015625 -2.765625 "/></g></g></g><g fill="#000000" fill-opacity="1"><g transform="translate(65.640759, 30.227728)"><g><path d="M 2.667969 -4.890625 C 1.996094 -4.890625 1.503906 -4.621094 1.191406 -4.085938 L 1.191406 -4.804688 L 0.621094 -4.804688 L 0.621094 0 L 1.191406 0 L 1.191406 -2.34375 C 1.191406 -3.0625 1.304688 -3.5625 1.585938 -3.910156 C 1.8125 -4.199219 2.152344 -4.332031 2.609375 -4.332031 L 2.828125 -4.332031 L 2.828125 -4.890625 Z M 2.667969 -4.890625 "/></g></g></g><g fill="#000000" fill-opacity="1"><g transform="translate(68.660036, 30.227728)"><g><path d="M 2.714844 0.0859375 C 3.867188 0.0859375 4.601562 -0.621094 4.882812 -1.515625 L 4.28125 -1.515625 C 4.0625 -0.910156 3.507812 -0.421875 2.714844 -0.421875 C 1.976562 -0.421875 1.382812 -0.882812 1.121094 -1.636719 C 1.042969 -1.855469 0.996094 -2.054688 0.980469 -2.300781 L 4.988281 -2.300781 C 4.988281 -2.398438 4.988281 -2.503906 4.980469 -2.597656 C 4.867188 -3.9375 4.027344 -4.890625 2.703125 -4.890625 C 1.285156 -4.890625 0.421875 -3.726562 0.421875 -2.398438 C 0.421875 -0.980469 1.375 0.0859375 2.714844 0.0859375 Z M 1.015625 -2.765625 C 1.042969 -2.957031 1.101562 -3.203125 1.191406 -3.394531 C 1.460938 -4.015625 2.011719 -4.382812 2.714844 -4.382812 C 3.40625 -4.382812 4 -4.007812 4.28125 -3.359375 C 4.367188 -3.160156 4.402344 -2.984375 4.4375 -2.765625 Z M 1.015625 -2.765625 "/></g></g></g><g fill="#000000" fill-opacity="1"><g transform="translate(74.059728, 30.227728)"><g><path d="M 2.539062 0.0859375 C 3.246094 0.0859375 3.832031 -0.28125 4.253906 -0.894531 L 4.253906 0 L 4.820312 0 L 4.820312 -6.675781 L 4.253906 -6.675781 L 4.253906 -3.910156 C 3.824219 -4.542969 3.238281 -4.890625 2.539062 -4.890625 C 1.285156 -4.890625 0.4375 -3.859375 0.4375 -2.398438 C 0.4375 -0.945312 1.285156 0.0859375 2.539062 0.0859375 Z M 2.589844 -0.421875 C 1.609375 -0.421875 1.007812 -1.277344 1.007812 -2.398438 C 1.007812 -3.527344 1.609375 -4.382812 2.589844 -4.382812 C 3.5625 -4.382812 4.269531 -3.535156 4.269531 -2.398438 C 4.269531 -1.269531 3.5625 -0.421875 2.589844 -0.421875 Z M 2.589844 -0.421875 "/></g></g></g><g fill="#000000" fill-opacity="1"><g transform="translate(79.511933, 30.227728)"><g/></g></g><g fill="#000000" fill-opacity="1"><g transform="translate(81.962365, 30.227728)"><g><path d="M 2.914062 0.0859375 C 4.164062 0.0859375 5.015625 -0.945312 5.015625 -2.398438 C 5.015625 -3.859375 4.164062 -4.890625 2.914062 -4.890625 C 2.214844 -4.890625 1.628906 -4.542969 1.199219 -3.910156 L 1.199219 -6.675781 L 0.628906 -6.675781 L 0.628906 0 L 1.199219 0 L 1.199219 -0.894531 C 1.617188 -0.28125 2.207031 0.0859375 2.914062 0.0859375 Z M 2.863281 -0.421875 C 1.890625 -0.421875 1.179688 -1.269531 1.179688 -2.398438 C 1.179688 -3.535156 1.890625 -4.382812 2.863281 -4.382812 C 3.84375 -4.382812 4.445312 -3.527344 4.445312 -2.398438 C 4.445312 -1.277344 3.84375 -0.421875 2.863281 -0.421875 Z M 2.863281 -0.421875 "/></g></g></g><g fill="#000000" fill-opacity="1"><g transform="translate(87.414571, 30.227728)"><g><path d="M 1.375 1.871094 C 1.671875 1.871094 2.101562 1.804688 2.371094 1.078125 L 4.542969 -4.804688 L 3.910156 -4.804688 L 2.460938 -0.769531 L 0.804688 -4.804688 L 0.175781 -4.804688 L 2.171875 -0.0429688 L 1.820312 0.882812 C 1.671875 1.269531 1.515625 1.355469 1.113281 1.355469 L 0.585938 1.355469 L 0.585938 1.871094 Z M 1.375 1.871094 "/></g></g></g><g fill="#000000" fill-opacity="1"><g transform="translate(92.162091, 30.227728)"><g/></g></g><g fill="#000000" fill-opacity="1"><g transform="translate(94.509489, 30.227728)"><g><path d="M 2.835938 0 L 2.835938 -0.65625 L 2.335938 -0.65625 C 1.792969 -0.65625 1.757812 -0.9375 1.757812 -1.363281 L 1.757812 -4.183594 L 2.84375 -4.183594 L 2.84375 -4.839844 L 1.757812 -4.839844 L 1.757812 -6.675781 L 1.015625 -6.675781 L 1.015625 -4.839844 L 0.234375 -4.839844 L 0.234375 -4.183594 L 1.015625 -4.183594 L 1.015625 -1.214844 C 1.015625 -0.246094 1.433594 0 2.160156 0 Z M 2.835938 0 "/></g></g></g><g fill="#000000" fill-opacity="1"><g transform="translate(97.66879, 30.227728)"><g><path d="M 1.363281 0 L 1.363281 -2.546875 C 1.363281 -3.152344 1.515625 -3.5625 1.792969 -3.832031 C 2.023438 -4.0625 2.335938 -4.183594 2.730469 -4.183594 L 2.984375 -4.183594 L 2.984375 -4.925781 L 2.949219 -4.925781 C 2.292969 -4.925781 1.8125 -4.71875 1.363281 -4.175781 L 1.363281 -4.839844 L 0.621094 -4.839844 L 0.621094 0 Z M 1.363281 0 "/></g></g></g><g fill="#000000" fill-opacity="1"><g transform="translate(100.845596, 30.227728)"><g><path d="M 0.996094 -5.671875 C 1.3125 -5.671875 1.566406 -5.914062 1.566406 -6.222656 C 1.566406 -6.519531 1.3125 -6.765625 0.996094 -6.765625 C 0.683594 -6.765625 0.429688 -6.519531 0.429688 -6.222656 C 0.429688 -5.914062 0.683594 -5.671875 0.996094 -5.671875 Z M 1.363281 0 L 1.363281 -4.839844 L 0.621094 -4.839844 L 0.621094 0 Z M 1.363281 0 "/></g></g></g><g fill="#000000" fill-opacity="1"><g transform="translate(102.832189, 30.227728)"><g><path d="M 2.957031 -4.925781 C 2.292969 -4.925781 1.863281 -4.71875 1.375 -4.085938 L 1.375 -4.839844 L 0.628906 -4.839844 L 0.628906 1.835938 L 1.375 1.835938 L 1.375 -0.753906 C 1.871094 -0.105469 2.308594 0.0859375 2.957031 0.0859375 C 4.261719 0.0859375 5.109375 -0.9375 5.109375 -2.425781 C 5.109375 -3.902344 4.261719 -4.925781 2.957031 -4.925781 Z M 2.886719 -4.269531 C 3.796875 -4.269531 4.367188 -3.472656 4.367188 -2.425781 C 4.367188 -1.363281 3.796875 -0.570312 2.886719 -0.570312 C 1.988281 -0.570312 1.347656 -1.347656 1.347656 -2.425781 C 1.347656 -3.492188 1.988281 -4.269531 2.886719 -4.269531 Z M 2.886719 -4.269531 "/></g></g></g><g fill="#000000" fill-opacity="1"><g transform="translate(108.380651, 30.227728)"><g><path d="M 2.160156 0 L 2.160156 -0.65625 L 1.925781 -0.65625 C 1.382812 -0.65625 1.347656 -0.902344 1.347656 -1.332031 L 1.347656 -6.675781 L 0.605469 -6.675781 L 0.605469 -1.214844 C 0.605469 -0.246094 1.023438 0 1.75 0 Z M 2.160156 0 "/></g></g></g><g fill="#000000" fill-opacity="1"><g transform="translate(110.804822, 30.227728)"><g><path d="M 2.773438 0.0859375 C 3.972656 0.0859375 4.707031 -0.648438 5.003906 -1.558594 L 4.210938 -1.558594 C 4 -1.023438 3.5 -0.570312 2.765625 -0.570312 C 2.066406 -0.570312 1.496094 -1.050781 1.25 -1.792969 C 1.199219 -1.941406 1.164062 -2.125 1.15625 -2.273438 L 5.09375 -2.273438 L 5.09375 -2.539062 C 5.09375 -4.09375 3.972656 -4.925781 2.757812 -4.925781 C 1.261719 -4.925781 0.421875 -3.71875 0.421875 -2.40625 C 0.421875 -0.980469 1.382812 0.0859375 2.773438 0.0859375 Z M 1.226562 -2.933594 C 1.25 -3.082031 1.296875 -3.253906 1.363281 -3.40625 C 1.628906 -3.957031 2.125 -4.269531 2.773438 -4.269531 C 3.394531 -4.269531 3.9375 -3.964844 4.191406 -3.40625 C 4.253906 -3.265625 4.289062 -3.089844 4.296875 -2.933594 Z M 1.226562 -2.933594 "/></g></g></g><g fill="#2684ff" fill-opacity="1"><g transform="translate(116.319778, 30.227728)"><g><path d="M 3.117188 0.0976562 C 4.402344 0.0976562 5.277344 -0.953125 5.277344 -2.460938 C 5.277344 -3.964844 4.402344 -5.015625 3.117188 -5.015625 C 2.539062 -5.015625 2.117188 -4.847656 1.722656 -4.289062 L 1.722656 -6.675781 L 0.542969 -6.675781 L 0.542969 0 L 1.722656 0 L 1.722656 -0.621094 C 2.117188 -0.0703125 2.539062 0.0976562 3.117188 0.0976562 Z M 2.84375 -0.917969 C 2.089844 -0.917969 1.574219 -1.550781 1.574219 -2.460938 C 1.574219 -3.371094 2.089844 -4 2.84375 -4 C 3.597656 -4 4.085938 -3.351562 4.085938 -2.460938 C 4.085938 -1.566406 3.597656 -0.917969 2.84375 -0.917969 Z M 2.84375 -0.917969 "/></g></g></g><g fill="#2684ff" fill-opacity="1"><g transform="translate(121.947005, 30.227728)"><g><path d="M 2.414062 0 L 2.414062 -0.980469 L 2.101562 -0.980469 C 1.8125 -0.980469 1.699219 -1.09375 1.699219 -1.425781 L 1.699219 -6.675781 L 0.515625 -6.675781 L 0.515625 -1.078125 C 0.515625 -0.316406 0.925781 0 1.652344 0 Z M 2.414062 0 "/></g></g></g><g fill="#2684ff" fill-opacity="1"><g transform="translate(124.589964, 30.227728)"><g><path d="M 2.25 0.0976562 C 2.828125 0.0976562 3.21875 -0.113281 3.578125 -0.621094 L 3.578125 0 L 4.761719 0 L 4.761719 -4.910156 L 3.578125 -4.910156 L 3.578125 -2.414062 C 3.578125 -1.769531 3.5 -1.410156 3.300781 -1.171875 C 3.132812 -0.972656 2.886719 -0.875 2.546875 -0.875 C 2.265625 -0.875 2.066406 -0.945312 1.925781 -1.09375 C 1.757812 -1.277344 1.6875 -1.566406 1.6875 -2.074219 L 1.6875 -4.910156 L 0.507812 -4.910156 L 0.507812 -2.082031 C 0.507812 -1.375 0.558594 -1.042969 0.71875 -0.71875 C 0.980469 -0.175781 1.488281 0.0976562 2.25 0.0976562 Z M 2.25 0.0976562 "/></g></g></g><g fill="#2684ff" fill-opacity="1"><g transform="translate(129.893387, 30.227728)"><g><path d="M 2.835938 0.0976562 C 4.148438 0.0976562 4.902344 -0.699219 5.191406 -1.652344 L 3.980469 -1.652344 C 3.824219 -1.25 3.4375 -0.917969 2.878906 -0.917969 C 2.371094 -0.917969 1.96875 -1.179688 1.742188 -1.636719 C 1.652344 -1.785156 1.574219 -2.003906 1.558594 -2.214844 L 5.269531 -2.214844 L 5.269531 -2.46875 C 5.269531 -4.246094 4.070312 -5.015625 2.800781 -5.015625 C 1.121094 -5.015625 0.332031 -3.710938 0.332031 -2.425781 C 0.332031 -0.972656 1.332031 0.0976562 2.835938 0.0976562 Z M 1.609375 -3.097656 C 1.628906 -3.230469 1.671875 -3.394531 1.804688 -3.554688 C 2.03125 -3.902344 2.398438 -4.078125 2.835938 -4.078125 C 3.265625 -4.078125 3.648438 -3.902344 3.875 -3.554688 C 4 -3.40625 4.042969 -3.230469 4.0625 -3.097656 Z M 1.609375 -3.097656 "/></g></g></g></svg>